<svg width="559" height="409" viewBox="0 0 559 409" fill="none" xmlns="http://www.w3.org/2000/svg">
<rect x="0.177734" y="19.0938" width="194" height="384" rx="14" transform="rotate(-5.45786 0.177734 19.0938)" fill="white"/>
<rect x="17.437" y="31.5078" width="163" height="35" rx="10" transform="rotate(-5.45786 17.437 31.5078)" fill="#F2F2F7"/>
<rect x="39.5981" y="263.453" width="163" height="35" rx="10" transform="rotate(-5.45786 39.5981 263.453)" fill="#6000DA"/>
<rect x="43.5933" y="305.266" width="163" height="22" rx="10" transform="rotate(-5.45786 43.5933 305.266)" fill="#F2F2F7"/>
<rect x="21.5269" y="74.3125" width="69" height="21" rx="10" transform="rotate(-5.45786 21.5269 74.3125)" fill="#F2F2F7"/>
<rect x="24.2852" y="103.18" width="163" height="152" rx="10" transform="rotate(-5.45786 24.2852 103.18)" fill="#F2F2F7"/>
<rect x="46.5415" y="336.125" width="163" height="50" rx="10" transform="rotate(-5.45786 46.5415 336.125)" fill="#F2F2F7"/>
<path d="M107.634 279.22C106.919 279.288 106.28 279.223 105.717 279.023C105.153 278.815 104.701 278.492 104.359 278.056C104.017 277.62 103.817 277.091 103.757 276.468L105.22 276.328C105.264 276.68 105.378 276.998 105.565 277.28C105.759 277.552 106.018 277.762 106.342 277.909C106.674 278.046 107.067 278.093 107.523 278.049C107.913 278.012 108.241 277.915 108.507 277.758C108.783 277.601 108.984 277.403 109.112 277.166C109.238 276.919 109.287 276.648 109.259 276.35C109.226 276.006 109.12 275.731 108.941 275.523C108.761 275.315 108.53 275.154 108.248 275.04C107.973 274.917 107.654 274.816 107.291 274.738C106.936 274.659 106.562 274.573 106.169 274.48C105.374 274.302 104.767 274.032 104.348 273.669C103.938 273.305 103.702 272.803 103.641 272.162C103.589 271.613 103.673 271.127 103.895 270.703C104.117 270.269 104.449 269.919 104.892 269.651C105.344 269.374 105.89 269.204 106.531 269.143C107.163 269.083 107.727 269.146 108.223 269.333C108.719 269.52 109.121 269.805 109.43 270.188C109.738 270.571 109.918 271.037 109.971 271.585L108.494 271.726C108.47 271.475 108.381 271.235 108.228 271.006C108.075 270.777 107.861 270.6 107.587 270.477C107.311 270.344 106.983 270.295 106.602 270.332C106.286 270.353 106.007 270.431 105.767 270.566C105.527 270.702 105.347 270.883 105.228 271.11C105.109 271.337 105.064 271.599 105.092 271.896C105.121 272.194 105.204 272.429 105.343 272.604C105.49 272.768 105.69 272.903 105.944 273.01C106.198 273.117 106.488 273.212 106.815 273.293C107.15 273.364 107.519 273.446 107.921 273.539C108.42 273.65 108.866 273.805 109.259 274.002C109.662 274.188 109.987 274.452 110.235 274.794C110.492 275.126 110.647 275.571 110.7 276.128C110.746 276.611 110.664 277.074 110.453 277.516C110.242 277.958 109.903 278.337 109.437 278.654C108.969 278.961 108.368 279.15 107.634 279.22ZM112.537 278.583L111.578 268.548L112.972 268.415L113.369 272.568C113.562 272.137 113.852 271.786 114.238 271.515C114.634 271.242 115.083 271.082 115.585 271.034C116.142 270.981 116.632 271.052 117.054 271.246C117.474 271.431 117.813 271.74 118.071 272.175C118.327 272.601 118.487 273.153 118.552 273.831L118.948 277.97L117.568 278.102L117.187 274.116C117.124 273.456 116.937 272.973 116.627 272.665C116.315 272.348 115.885 272.215 115.337 272.268C114.965 272.303 114.639 272.423 114.359 272.628C114.078 272.833 113.866 273.116 113.723 273.477C113.578 273.828 113.529 274.245 113.575 274.728L113.931 278.449L112.537 278.583ZM123.073 277.745C122.497 277.8 122.01 277.748 121.61 277.589C121.21 277.43 120.902 277.197 120.685 276.89C120.467 276.573 120.34 276.224 120.304 275.843C120.26 275.379 120.343 274.972 120.553 274.624C120.763 274.267 121.082 273.978 121.511 273.759C121.94 273.54 122.466 273.401 123.089 273.341L124.914 273.167C124.875 272.758 124.782 272.425 124.636 272.167C124.489 271.909 124.289 271.726 124.035 271.619C123.79 271.502 123.486 271.461 123.123 271.496C122.705 271.535 122.357 271.672 122.079 271.905C121.801 272.128 121.643 272.439 121.606 272.836L120.212 272.969C120.221 272.471 120.348 272.037 120.594 271.667C120.848 271.286 121.19 270.982 121.618 270.753C122.045 270.516 122.51 270.373 123.011 270.325C123.671 270.262 124.235 270.325 124.703 270.515C125.171 270.704 125.537 271.002 125.801 271.408C126.073 271.804 126.237 272.295 126.293 272.88L126.709 277.229L125.496 277.344L125.272 276.17C125.187 276.366 125.083 276.554 124.96 276.735C124.836 276.915 124.683 277.075 124.499 277.215C124.325 277.353 124.116 277.467 123.871 277.556C123.637 277.653 123.371 277.716 123.073 277.745ZM123.23 276.59C123.528 276.562 123.791 276.476 124.021 276.332C124.251 276.188 124.44 276.006 124.588 275.786C124.744 275.555 124.851 275.306 124.91 275.038C124.977 274.759 125.002 274.48 124.985 274.201L124.981 274.159L123.323 274.317C122.923 274.356 122.603 274.438 122.362 274.564C122.129 274.68 121.965 274.827 121.869 275.005C121.774 275.183 121.737 275.383 121.758 275.606C121.78 275.838 121.85 276.033 121.969 276.191C122.095 276.338 122.265 276.448 122.478 276.522C122.692 276.595 122.942 276.618 123.23 276.59ZM128.488 277.059L127.817 270.035L129.071 269.915L129.323 271.227C129.451 270.896 129.63 270.611 129.86 270.374C130.09 270.127 130.366 269.927 130.689 269.774C131.021 269.621 131.405 269.523 131.842 269.481L131.983 270.958L131.482 271.006C131.194 271.034 130.923 271.097 130.67 271.196C130.416 271.286 130.195 271.425 130.006 271.611C129.827 271.797 129.696 272.04 129.612 272.338C129.528 272.637 129.506 273 129.547 273.427L129.881 276.925L128.488 277.059ZM136.785 276.435C136.116 276.498 135.507 276.402 134.957 276.145C134.407 275.888 133.958 275.5 133.608 274.98C133.268 274.459 133.063 273.837 132.994 273.112C132.923 272.369 133.005 271.709 133.241 271.134C133.485 270.548 133.852 270.077 134.343 269.72C134.833 269.355 135.422 269.139 136.11 269.073C136.797 269.008 137.402 269.105 137.924 269.364C138.445 269.624 138.865 269.996 139.184 270.481C139.501 270.957 139.689 271.502 139.747 272.115C139.756 272.208 139.761 272.311 139.763 272.423C139.773 272.525 139.779 272.642 139.782 272.773L134.04 273.321L133.946 272.332L138.322 271.914C138.238 271.331 137.999 270.895 137.606 270.604C137.212 270.304 136.745 270.18 136.206 270.231C135.825 270.268 135.485 270.389 135.186 270.596C134.886 270.794 134.655 271.069 134.492 271.422C134.337 271.765 134.284 272.187 134.331 272.689L134.369 273.079C134.418 273.599 134.554 274.032 134.774 274.376C135.003 274.711 135.284 274.956 135.618 275.112C135.951 275.258 136.303 275.313 136.674 275.278C137.12 275.235 137.478 275.103 137.747 274.88C138.017 274.657 138.205 274.372 138.313 274.024L139.706 273.891C139.626 274.33 139.459 274.735 139.204 275.106C138.947 275.468 138.615 275.767 138.206 276.003C137.807 276.238 137.333 276.382 136.785 276.435Z" fill="white"/>
<g filter="url(#filter0_dddd_14306_31817)">
<rect x="362.596" width="194" height="384" rx="14" transform="rotate(6.06856 362.596 0)" fill="white"/>
<rect x="377.026" y="15.6094" width="163" height="35" rx="10" transform="rotate(6.06856 377.026 15.6094)" fill="#101036"/>
<rect x="369.414" y="87.2109" width="163" height="35" rx="10" transform="rotate(6.06856 369.414 87.2109)" fill="#6000DA"/>
<rect x="372.48" y="58.375" width="37" height="21" rx="10" transform="rotate(6.06856 372.48 58.375)" fill="#F2F2F7"/>
<rect x="501.751" y="72.1172" width="33" height="21" rx="10" transform="rotate(6.06856 501.751 72.1172)" fill="#F2F2F7"/>
<rect x="364.657" y="131.961" width="163" height="73" rx="10" transform="rotate(6.06856 364.657 131.961)" fill="#F2F2F7"/>
<rect x="355.988" y="213.5" width="163" height="73" rx="10" transform="rotate(6.06856 355.988 213.5)" fill="#F2F2F7"/>
<rect x="347.108" y="297.023" width="163" height="73" rx="10" transform="rotate(6.06856 347.108 297.023)" fill="#F2F2F7"/>
<path d="M408.068 113.613C407.353 113.537 406.74 113.345 406.228 113.037C405.718 112.72 405.339 112.314 405.091 111.818C404.843 111.322 404.752 110.764 404.819 110.142L406.28 110.297C406.252 110.651 406.301 110.985 406.427 111.298C406.564 111.604 406.776 111.861 407.063 112.07C407.361 112.27 407.737 112.395 408.192 112.443C408.582 112.485 408.923 112.455 409.215 112.355C409.517 112.256 409.754 112.102 409.926 111.895C410.099 111.679 410.201 111.423 410.233 111.126C410.269 110.782 410.221 110.491 410.087 110.251C409.952 110.012 409.758 109.808 409.504 109.64C409.26 109.464 408.967 109.302 408.626 109.153C408.295 109.005 407.946 108.846 407.579 108.675C406.835 108.343 406.294 107.957 405.956 107.517C405.628 107.079 405.497 106.539 405.565 105.899C405.624 105.351 405.804 104.892 406.106 104.52C406.409 104.14 406.805 103.863 407.293 103.689C407.791 103.507 408.36 103.451 409 103.519C409.631 103.586 410.171 103.761 410.62 104.043C411.069 104.325 411.406 104.685 411.631 105.122C411.857 105.559 411.941 106.051 411.883 106.599L410.407 106.442C410.434 106.191 410.395 105.938 410.291 105.683C410.186 105.428 410.012 105.212 409.768 105.036C409.525 104.851 409.213 104.738 408.833 104.698C408.518 104.655 408.23 104.676 407.967 104.76C407.705 104.845 407.493 104.987 407.331 105.186C407.169 105.384 407.072 105.632 407.04 105.929C407.009 106.226 407.043 106.474 407.144 106.672C407.256 106.862 407.425 107.035 407.652 107.191C407.88 107.346 408.146 107.497 408.449 107.642C408.763 107.778 409.108 107.932 409.484 108.104C409.95 108.313 410.356 108.553 410.703 108.824C411.06 109.088 411.326 109.412 411.501 109.796C411.686 110.173 411.749 110.639 411.69 111.196C411.638 111.679 411.465 112.115 411.17 112.506C410.875 112.897 410.467 113.201 409.947 113.418C409.427 113.626 408.801 113.691 408.068 113.613ZM416.183 114.475C415.524 114.405 414.946 114.189 414.45 113.827C413.963 113.465 413.595 112.994 413.347 112.414C413.109 111.826 413.029 111.169 413.106 110.446C413.185 109.703 413.406 109.074 413.771 108.559C414.136 108.035 414.6 107.648 415.161 107.398C415.723 107.148 416.333 107.058 416.992 107.128C417.66 107.199 418.238 107.415 418.725 107.777C419.213 108.138 419.575 108.609 419.814 109.188C420.062 109.768 420.147 110.429 420.068 111.172C419.989 111.914 419.767 112.543 419.403 113.058C419.048 113.574 418.589 113.957 418.028 114.207C417.466 114.457 416.851 114.546 416.183 114.475ZM416.31 113.278C416.691 113.319 417.044 113.262 417.37 113.109C417.705 112.957 417.985 112.71 418.209 112.368C418.443 112.017 418.59 111.568 418.648 111.021C418.706 110.473 418.662 110.008 418.515 109.627C418.368 109.236 418.147 108.931 417.852 108.712C417.565 108.493 417.236 108.365 416.865 108.325C416.494 108.286 416.14 108.342 415.805 108.494C415.47 108.646 415.185 108.897 414.951 109.248C414.727 109.59 414.585 110.035 414.527 110.583C414.469 111.13 414.513 111.599 414.659 111.99C414.815 112.373 415.037 112.674 415.324 112.892C415.619 113.111 415.948 113.24 416.31 113.278ZM421.333 114.854L422.079 107.838L423.331 107.971L423.316 109.307C423.508 109.008 423.74 108.765 424.013 108.578C424.287 108.382 424.598 108.241 424.945 108.156C425.301 108.072 425.697 108.053 426.134 108.1L425.977 109.575L425.475 109.522C425.188 109.491 424.91 109.499 424.642 109.546C424.376 109.583 424.131 109.675 423.909 109.82C423.697 109.966 423.519 110.178 423.377 110.453C423.235 110.729 423.142 111.081 423.096 111.508L422.725 115.002L421.333 114.854ZM429.53 115.725C429.094 115.679 428.721 115.569 428.411 115.395C428.101 115.222 427.875 114.963 427.733 114.619C427.591 114.276 427.55 113.825 427.609 113.269L427.992 109.663L426.781 109.534L426.907 108.351L428.118 108.48L428.472 106.743L429.697 106.874L429.51 108.628L431.501 108.839L431.375 110.023L429.385 109.811L429 113.431C428.957 113.83 429.012 114.112 429.163 114.279C429.315 114.436 429.596 114.536 430.004 114.579L430.811 114.665L430.686 115.848L429.53 115.725ZM438.734 116.704C438.298 116.658 437.925 116.548 437.615 116.374C437.305 116.2 437.079 115.941 436.937 115.598C436.795 115.254 436.754 114.804 436.813 114.247L437.196 110.641L435.985 110.513L436.111 109.329L437.322 109.458L437.676 107.722L438.901 107.852L438.714 109.606L440.705 109.818L440.579 111.001L438.589 110.789L438.204 114.409C438.161 114.808 438.216 115.091 438.367 115.257C438.519 115.414 438.8 115.514 439.208 115.558L440.015 115.644L439.89 116.827L438.734 116.704ZM441.494 116.997L442.56 106.974L443.952 107.122L443.511 111.271C443.787 110.887 444.141 110.601 444.574 110.412C445.016 110.224 445.488 110.157 445.989 110.211C446.546 110.27 447.012 110.437 447.386 110.711C447.761 110.976 448.032 111.348 448.197 111.825C448.363 112.293 448.41 112.866 448.338 113.544L447.898 117.678L446.52 117.532L446.943 113.55C447.013 112.891 446.927 112.38 446.684 112.016C446.442 111.643 446.047 111.428 445.5 111.369C445.129 111.33 444.785 111.383 444.469 111.527C444.154 111.672 443.889 111.907 443.676 112.231C443.465 112.547 443.333 112.946 443.282 113.428L442.887 117.145L441.494 116.997ZM449.776 117.878L450.522 110.861L451.914 111.009L451.168 118.026L449.776 117.878ZM451.373 109.614C451.104 109.586 450.89 109.479 450.731 109.293C450.582 109.108 450.521 108.886 450.549 108.626C450.575 108.375 450.681 108.18 450.864 108.04C451.058 107.892 451.29 107.832 451.559 107.86C451.819 107.888 452.028 107.995 452.187 108.18C452.346 108.357 452.413 108.571 452.386 108.821C452.359 109.081 452.248 109.285 452.054 109.433C451.86 109.582 451.633 109.642 451.373 109.614ZM455.856 118.693C455.262 118.63 454.753 118.477 454.328 118.235C453.903 117.993 453.58 117.682 453.357 117.301C453.135 116.921 453.021 116.491 453.016 116.012L454.436 116.163C454.458 116.391 454.525 116.604 454.635 116.804C454.754 117.004 454.924 117.172 455.144 117.308C455.374 117.445 455.651 117.531 455.976 117.566C456.282 117.598 456.537 117.583 456.741 117.52C456.955 117.449 457.116 117.344 457.225 117.206C457.335 117.058 457.399 116.896 457.417 116.719C457.445 116.459 457.401 116.258 457.285 116.114C457.179 115.962 457.005 115.835 456.762 115.734C456.529 115.625 456.245 115.52 455.909 115.418C455.59 115.328 455.282 115.22 454.986 115.095C454.699 114.961 454.444 114.807 454.218 114.633C454.002 114.46 453.836 114.255 453.72 114.017C453.606 113.77 453.566 113.48 453.602 113.146C453.644 112.747 453.789 112.401 454.036 112.108C454.284 111.806 454.612 111.587 455.021 111.452C455.44 111.309 455.918 111.266 456.457 111.323C457.236 111.406 457.843 111.659 458.277 112.08C458.711 112.502 458.933 113.056 458.945 113.742L457.594 113.598C457.591 113.279 457.477 113.023 457.254 112.83C457.031 112.628 456.72 112.506 456.321 112.464C455.922 112.421 455.608 112.467 455.377 112.602C455.147 112.738 455.018 112.935 454.99 113.195C454.973 113.362 455.017 113.517 455.124 113.66C455.231 113.802 455.395 113.933 455.618 114.05C455.85 114.159 456.134 114.269 456.469 114.38C456.952 114.525 457.38 114.688 457.755 114.869C458.13 115.049 458.419 115.286 458.623 115.58C458.826 115.874 458.901 116.272 458.848 116.773C458.811 117.21 458.658 117.583 458.391 117.893C458.133 118.203 457.785 118.429 457.347 118.57C456.919 118.712 456.422 118.753 455.856 118.693ZM463.831 119.372L464.897 109.349L466.289 109.497L465.224 119.52L463.831 119.372ZM469.442 120.138C468.867 120.076 468.399 119.928 468.039 119.693C467.68 119.457 467.424 119.168 467.273 118.823C467.123 118.469 467.068 118.102 467.109 117.721C467.158 117.257 467.32 116.876 467.596 116.577C467.873 116.268 468.244 116.049 468.708 115.92C469.172 115.791 469.715 115.76 470.337 115.826L472.161 116.02C472.204 115.612 472.18 115.266 472.088 114.984C471.996 114.702 471.836 114.484 471.608 114.328C471.391 114.164 471.102 114.063 470.74 114.025C470.322 113.98 469.954 114.044 469.635 114.217C469.317 114.38 469.101 114.653 468.985 115.035L467.593 114.887C467.701 114.401 467.912 114.001 468.227 113.687C468.553 113.365 468.948 113.135 469.413 112.997C469.879 112.849 470.363 112.802 470.864 112.855C471.523 112.925 472.063 113.1 472.484 113.379C472.905 113.659 473.204 114.024 473.381 114.474C473.569 114.917 473.631 115.43 473.569 116.015L473.107 120.358L471.896 120.23L471.911 119.034C471.789 119.209 471.649 119.373 471.492 119.525C471.335 119.677 471.153 119.803 470.945 119.903C470.747 120.004 470.519 120.074 470.261 120.112C470.012 120.161 469.739 120.169 469.442 120.138ZM469.827 119.038C470.124 119.07 470.399 119.038 470.653 118.943C470.907 118.848 471.129 118.707 471.318 118.521C471.517 118.326 471.672 118.103 471.783 117.852C471.904 117.593 471.984 117.325 472.023 117.047L472.028 117.005L470.371 116.829C469.972 116.787 469.642 116.803 469.38 116.879C469.129 116.946 468.939 117.057 468.81 117.212C468.681 117.368 468.604 117.557 468.581 117.779C468.556 118.011 468.586 118.216 468.67 118.394C468.765 118.564 468.909 118.706 469.104 118.82C469.298 118.935 469.539 119.008 469.827 119.038ZM477.617 120.838C477.18 120.791 476.807 120.681 476.497 120.508C476.187 120.334 475.961 120.075 475.819 119.732C475.678 119.388 475.636 118.938 475.696 118.381L476.079 114.775L474.868 114.646L474.993 113.463L476.205 113.592L476.558 111.856L477.783 111.986L477.597 113.74L479.588 113.952L479.462 115.135L477.471 114.923L477.086 118.543C477.044 118.942 477.098 119.225 477.249 119.391C477.402 119.548 477.682 119.648 478.09 119.691L478.898 119.777L478.772 120.961L477.617 120.838ZM483.343 121.615C482.675 121.544 482.097 121.328 481.61 120.967C481.123 120.605 480.76 120.135 480.521 119.556C480.291 118.977 480.215 118.326 480.292 117.602C480.371 116.86 480.583 116.23 480.929 115.713C481.285 115.188 481.74 114.8 482.292 114.549C482.845 114.288 483.465 114.195 484.152 114.268C484.839 114.341 485.412 114.557 485.871 114.915C486.331 115.274 486.668 115.723 486.883 116.262C487.099 116.791 487.174 117.363 487.109 117.975C487.099 118.068 487.083 118.17 487.062 118.28C487.051 118.382 487.034 118.498 487.011 118.627L481.276 118.017L481.381 117.028L485.752 117.493C485.786 116.905 485.64 116.43 485.312 116.067C484.986 115.694 484.554 115.479 484.015 115.422C483.635 115.381 483.277 115.433 482.943 115.575C482.61 115.709 482.328 115.932 482.098 116.246C481.877 116.551 481.741 116.954 481.687 117.455L481.646 117.845C481.591 118.365 481.637 118.815 481.784 119.197C481.941 119.571 482.168 119.867 482.464 120.086C482.76 120.296 483.094 120.421 483.466 120.46C483.911 120.507 484.288 120.449 484.597 120.285C484.905 120.12 485.147 119.878 485.321 119.559L486.713 119.707C486.547 120.121 486.302 120.485 485.978 120.797C485.655 121.101 485.269 121.328 484.822 121.477C484.383 121.628 483.89 121.674 483.343 121.615ZM488.248 121.968L488.994 114.952L490.247 115.085L490.232 116.421C490.423 116.122 490.656 115.879 490.929 115.692C491.203 115.496 491.514 115.356 491.861 115.27C492.217 115.186 492.613 115.167 493.049 115.214L492.893 116.689L492.391 116.636C492.104 116.606 491.826 116.614 491.558 116.66C491.291 116.698 491.047 116.789 490.825 116.934C490.612 117.081 490.435 117.292 490.293 117.568C490.151 117.843 490.058 118.195 490.012 118.622L489.641 122.116L488.248 121.968ZM494.206 119.673L494.767 112.806L496.271 112.966L495.39 119.799L494.206 119.673ZM494.49 122.702C494.22 122.673 494.007 122.566 493.848 122.38C493.7 122.186 493.638 121.969 493.664 121.727C493.691 121.477 493.796 121.277 493.981 121.127C494.176 120.97 494.408 120.905 494.678 120.934C494.937 120.962 495.141 121.072 495.29 121.267C495.448 121.452 495.514 121.671 495.488 121.921C495.462 122.162 495.352 122.362 495.157 122.519C494.972 122.669 494.749 122.73 494.49 122.702Z" fill="white"/>
<g clip-path="url(#clip0_14306_31817)">
<path fill-rule="evenodd" clip-rule="evenodd" d="M408.334 22.9659L404.804 22.9092L404.642 31.2272C403.261 28.4417 402.211 26.3372 402.089 26.0919L398.94 27.7339C400.231 30.3202 402.045 33.9731 403.774 37.4843C403.749 37.5177 403.723 37.5511 403.697 37.5845C399.37 37.9578 395.853 37.8592 395.78 37.8569L395.655 41.454C395.886 41.4613 397.909 41.5187 400.755 41.3873C399.385 43.1578 398.357 44.4872 398.034 44.9056L397.944 45.0216L400.714 47.2421L400.73 47.2204C400.91 46.9885 402.429 45.0234 404.423 42.4458L404.282 49.6872L407.813 49.7438L407.887 45.9426C408.347 46.9143 408.68 47.6395 408.833 48.0145L412.092 46.6165C411.741 45.7571 410.597 43.3618 409.202 40.4957C412.967 39.8317 416.73 38.7256 419.331 36.8912L417.33 33.9346C415.195 35.4403 411.978 36.3742 408.675 36.9515C411.727 33.0098 414.616 29.2812 415.173 28.5765L412.426 26.3269C412 26.8662 410.278 29.0852 408.162 31.8174L408.334 22.9659Z" fill="#CCFF00"/>
<path fill-rule="evenodd" clip-rule="evenodd" d="M468.551 50.3931C469.62 51.448 471.128 51.8334 472.327 51.9608C473.295 52.0638 474.061 51.9983 474.229 51.9812L473.923 48.6984C473.233 48.7682 471.491 48.6938 470.807 48.0182C470.649 47.8625 470.473 47.6065 470.512 47.0033C470.623 45.3132 470.932 42.3216 471.247 39.4658L475.538 39.4182L475.516 36.1194L471.621 36.1626C471.882 33.8967 472.085 32.2145 472.09 32.1719L468.878 31.7806C468.856 31.9622 468.633 33.805 468.358 36.1988L465.338 36.2323L465.36 39.5311L467.987 39.502C467.683 42.2694 467.393 45.1167 467.283 46.7969C467.164 48.6179 467.906 49.7575 468.551 50.3931ZM427.996 47.1334C428.348 47.2178 428.7 47.2784 429.05 47.3155C430.688 47.4896 432.262 47.1499 433.401 46.3497C434.477 45.594 435.14 44.4849 435.318 43.1421C435.581 41.1643 434.682 39.4812 432.851 38.5244C432.216 38.1922 431.447 37.9521 430.633 37.6979C428.876 37.1493 427.423 36.6329 427.447 35.8667C427.463 35.3485 427.656 35.1201 427.823 34.9789C428.246 34.6206 429.065 34.4536 429.817 34.5722C431.408 34.8241 431.942 35.4861 431.91 36.0214C431.913 35.9828 431.918 35.9618 431.918 35.9618L435.12 36.4248C435.126 36.3823 435.668 32.1582 430.327 31.3123C428.626 31.0424 426.918 31.4657 425.761 32.4443C424.789 33.2669 424.253 34.419 424.212 35.7763C424.108 39.115 427.457 40.1605 429.673 40.8524L429.673 40.8525L429.676 40.8536L429.676 40.8536L429.676 40.8536C430.349 41.0636 430.984 41.2618 431.365 41.461C432.115 41.8528 432.167 42.2941 432.111 42.7125C432.056 43.1279 431.89 43.4126 431.572 43.6356C430.951 44.072 429.844 44.184 428.75 43.9221C426.556 43.3959 426.475 42.0282 426.503 41.6216L426.5 41.6552L423.284 41.295C423.106 42.881 423.863 46.1421 427.996 47.1334ZM437.103 40.0381C436.635 44.4403 439.428 48.359 443.328 48.7737C447.229 49.1884 450.783 45.9443 451.251 41.5422C451.719 37.1401 448.926 33.2214 445.026 32.8067C441.126 32.392 437.571 35.6359 437.103 40.0381ZM440.321 40.3802C440.597 37.7874 442.551 35.8618 444.677 36.0879C446.803 36.3139 448.309 38.6071 448.033 41.2001C447.758 43.7931 445.803 45.7186 443.677 45.4925C441.551 45.2665 440.046 42.973 440.321 40.3802ZM506.919 55.9259C506.259 55.8558 505.605 55.6463 504.972 55.2988C503.193 54.3222 502.114 52.2008 502.35 50.1401C502.593 48.0129 503.799 46.5296 505.658 46.071C507.442 45.6311 509.571 46.2123 511.307 47.2553C511.593 45.8193 511.505 44.7322 511.041 44.0118C509.624 41.809 505.439 43.7107 505.397 43.7302L504.042 40.7399C506.539 39.557 511.392 38.5319 513.749 42.1942C515.418 44.7856 514.505 48.1832 514 49.7372C515.13 51.4903 515.724 54.205 515.48 56.501L512.263 56.1589C512.354 55.3 512.268 54.3202 512.049 53.4261C511.297 54.3479 510.358 55.1476 509.251 55.5901C508.483 55.8973 507.698 56.0087 506.919 55.9259ZM507.268 49.2387C506.952 49.2051 506.659 49.2152 506.408 49.2772L506.407 49.2772C506.155 49.3396 505.685 49.4557 505.565 50.5085C505.481 51.2393 505.89 52.0493 506.516 52.3927C507.056 52.6894 507.554 52.7302 508.08 52.5197C508.88 52.2 509.633 51.3618 510.178 50.4368C509.307 49.805 508.189 49.3366 507.268 49.2387ZM453.782 48.5899C454.337 49.5532 455.154 50.1335 456.07 50.2308C456.213 50.246 456.358 50.2495 456.505 50.2408C458.028 50.1512 459.126 48.8594 459.644 47.6807C460.27 46.2592 460.559 44.5903 460.527 42.5783C460.498 40.7424 459.944 39.1247 459.211 37.779C460.331 37.3927 461.699 38.5345 461.871 38.6839L463.974 36.1672C462.15 34.5861 459.461 33.7258 457.274 35.0837C456.33 34.0482 455.528 33.4562 455.447 33.3975L453.558 36.0843C453.574 36.0959 454.24 36.594 455.005 37.4558C453.744 39.3976 453.241 41.6123 453.042 42.9717C452.853 44.2611 452.697 46.7055 453.782 48.5899ZM456.243 43.4462C456.388 42.4581 456.633 41.5384 456.96 40.7238C457.157 41.3237 457.28 41.9669 457.291 42.6449C457.315 44.1622 457.119 45.3708 456.692 46.3403C456.627 46.4885 456.55 46.6143 456.475 46.7141C456.143 45.9656 456.053 44.7444 456.243 43.4462ZM481.026 53.1731C480.366 53.103 479.712 52.8935 479.079 52.5461C477.299 51.5694 476.221 49.448 476.456 47.3874C476.699 45.26 477.905 43.7768 479.765 43.3182C481.549 42.878 483.678 43.4596 485.413 44.5026C485.7 43.0664 485.611 41.9792 485.148 41.259C483.743 39.0763 479.542 40.9597 479.5 40.9792L478.149 37.9871C480.645 36.8041 485.498 35.7791 487.856 39.4412C489.524 42.0327 488.611 45.4308 488.107 46.9847C489.236 48.7378 489.831 51.4523 489.587 53.7482L486.369 53.4061C486.46 52.5472 486.375 51.5674 486.155 50.6733C485.403 51.5952 484.465 52.3949 483.358 52.8375C482.59 53.1445 481.804 53.2559 481.026 53.1731ZM481.375 46.4859C481.058 46.4523 480.766 46.4624 480.514 46.5244C480.262 46.5866 479.792 46.7027 479.671 47.7557C479.588 48.4865 479.997 49.2965 480.622 49.64C481.164 49.9369 481.661 49.9775 482.187 49.7671C482.987 49.4472 483.739 48.609 484.284 47.6842C483.414 47.0522 482.295 46.5838 481.375 46.4859ZM492.488 52.7047C493.043 53.6681 493.861 54.2486 494.777 54.3458C494.919 54.361 495.064 54.3645 495.211 54.3559C496.734 54.2663 497.832 52.9747 498.351 51.7956C498.976 50.3745 499.265 48.7056 499.234 46.6933C499.205 44.8573 498.651 43.2397 497.918 41.8941C499.036 41.5075 500.405 42.6497 500.578 42.799L502.68 40.2823C500.857 38.7019 498.168 37.8413 495.98 39.1988C495.036 38.1632 494.234 37.5713 494.154 37.5126L492.269 40.2025C492.284 40.2138 492.947 40.7133 493.709 41.5743C492.45 43.5152 491.947 45.7283 491.748 47.0869C491.559 48.3764 491.404 50.8209 492.488 52.7047ZM494.949 47.5612C495.094 46.5746 495.338 45.6555 495.665 44.8419C495.863 45.4414 495.987 46.0841 495.998 46.7596C496.021 48.2772 495.825 49.4861 495.399 50.4552C495.333 50.6034 495.256 50.7292 495.182 50.829C494.849 50.0807 494.759 48.8593 494.949 47.5612Z" fill="#F2F2F7"/>
</g>
</g>
<path d="M234.648 269.406C260.549 296.519 280.733 292.997 315.812 268.804" stroke="#CEE542" stroke-width="7" stroke-linecap="square"/>
<path d="M298.985 263.906C307.548 267.426 316.042 267.994 321.415 264.43" stroke="#CEE542" stroke-width="7" stroke-linecap="square"/>
<path d="M313.171 285.297C313.26 276.039 316.042 267.994 321.415 264.43" stroke="#CEE542" stroke-width="7" stroke-linecap="square"/>
<defs>
<filter id="filter0_dddd_14306_31817" x="319.4" y="1.39844" width="238.708" height="407.555" filterUnits="userSpaceOnUse" color-interpolation-filters="sRGB">
<feFlood flood-opacity="0" result="BackgroundImageFix"/>
<feColorMatrix in="SourceAlpha" type="matrix" values="0 0 0 0 0 0 0 0 0 0 0 0 0 0 0 0 0 0 127 0" result="hardAlpha"/>
<feOffset dy="4"/>
<feGaussianBlur stdDeviation="2"/>
<feComposite in2="hardAlpha" operator="out"/>
<feColorMatrix type="matrix" values="0 0 0 0 0 0 0 0 0 0 0 0 0 0 0 0 0 0 0.25 0"/>
<feBlend mode="normal" in2="BackgroundImageFix" result="effect1_dropShadow_14306_31817"/>
<feColorMatrix in="SourceAlpha" type="matrix" values="0 0 0 0 0 0 0 0 0 0 0 0 0 0 0 0 0 0 127 0" result="hardAlpha"/>
<feOffset dy="4"/>
<feGaussianBlur stdDeviation="2"/>
<feComposite in2="hardAlpha" operator="out"/>
<feColorMatrix type="matrix" values="0 0 0 0 0 0 0 0 0 0 0 0 0 0 0 0 0 0 0.25 0"/>
<feBlend mode="normal" in2="effect1_dropShadow_14306_31817" result="effect2_dropShadow_14306_31817"/>
<feColorMatrix in="SourceAlpha" type="matrix" values="0 0 0 0 0 0 0 0 0 0 0 0 0 0 0 0 0 0 127 0" result="hardAlpha"/>
<feOffset dy="4"/>
<feGaussianBlur stdDeviation="2"/>
<feComposite in2="hardAlpha" operator="out"/>
<feColorMatrix type="matrix" values="0 0 0 0 0 0 0 0 0 0 0 0 0 0 0 0 0 0 0.25 0"/>
<feBlend mode="normal" in2="effect2_dropShadow_14306_31817" result="effect3_dropShadow_14306_31817"/>
<feColorMatrix in="SourceAlpha" type="matrix" values="0 0 0 0 0 0 0 0 0 0 0 0 0 0 0 0 0 0 127 0" result="hardAlpha"/>
<feOffset dy="4"/>
<feGaussianBlur stdDeviation="2"/>
<feComposite in2="hardAlpha" operator="out"/>
<feColorMatrix type="matrix" values="0 0 0 0 0 0 0 0 0 0 0 0 0 0 0 0 0 0 0.25 0"/>
<feBlend mode="normal" in2="effect3_dropShadow_14306_31817" result="effect4_dropShadow_14306_31817"/>
<feBlend mode="normal" in="SourceGraphic" in2="effect4_dropShadow_14306_31817" result="shape"/>
</filter>
<clipPath id="clip0_14306_31817">
<rect width="121" height="27" fill="white" transform="translate(397.485 21.8125) rotate(6.06856)"/>
</clipPath>
</defs>
</svg>
