<svg width="12" height="12" viewBox="0 0 12 12" fill="none" xmlns="http://www.w3.org/2000/svg">
<path d="M6.00008 1.33073C8.57316 1.33073 10.6667 3.42431 10.6667 5.9974C10.6667 8.57048 8.57316 10.6641 6.00008 10.6641C3.427 10.6641 1.33341 8.57048 1.33341 5.9974C1.33341 3.42431 3.427 1.33073 6.00008 1.33073ZM6.00008 0.164062C2.77833 0.164062 0.166748 2.77565 0.166748 5.9974C0.166748 9.21915 2.77833 11.8307 6.00008 11.8307C9.22183 11.8307 11.8334 9.21915 11.8334 5.9974C11.8334 2.77565 9.22183 0.164062 6.00008 0.164062ZM8.91675 5.41406H6.58341V3.08073H5.41675V5.41406H3.08341V6.58073H5.41675V8.91406H6.58341V6.58073H8.91675V5.41406Z" fill="#6000DA"/>
</svg>
