<svg width="20" height="19" viewBox="0 0 20 19" fill="none" xmlns="http://www.w3.org/2000/svg">
<path d="M14.5 0.515625C12.76 0.515625 11.09 1.32563 10 2.60563C8.91 1.32563 7.24 0.515625 5.5 0.515625C2.42 0.515625 0 2.93563 0 6.01562C0 9.79562 3.4 12.8756 8.55 17.5556L10 18.8656L11.45 17.5456C16.6 12.8756 20 9.79562 20 6.01562C20 2.93563 17.58 0.515625 14.5 0.515625ZM10.1 16.0656L10 16.1656L9.9 16.0656C5.14 11.7556 2 8.90563 2 6.01562C2 4.01562 3.5 2.51562 5.5 2.51562C7.04 2.51562 8.54 3.50563 9.07 4.87563H10.94C11.46 3.50563 12.96 2.51562 14.5 2.51562C16.5 2.51562 18 4.01562 18 6.01562C18 8.90563 14.86 11.7556 10.1 16.0656Z" fill="#6000DA"/>
</svg>
