<svg width="32" height="32" viewBox="0 0 32 32" fill="none" xmlns="http://www.w3.org/2000/svg">
<path d="M16 0.460938C12.9267 0.460937 9.92235 1.37229 7.36697 3.07974C4.81158 4.7872 2.8199 7.21407 1.64378 10.0535C0.46767 12.8929 0.159945 16.0172 0.759523 19.0315C1.3591 22.0458 2.83905 24.8146 5.01223 26.9878C7.18541 29.161 9.9542 30.6409 12.9685 31.2405C15.9828 31.8401 19.1072 31.5323 21.9465 30.3562C24.7859 29.1801 27.2128 27.1884 28.9203 24.633C30.6277 22.0777 31.5391 19.0733 31.5391 16C31.5342 11.8803 29.8955 7.93066 26.9824 5.01757C24.0693 2.10448 20.1197 0.465776 16 0.460938ZM28.4267 10.2109H22.3055C21.6394 7.44801 20.4245 4.84725 18.7331 2.56328C20.8329 2.9948 22.8028 3.91097 24.4858 5.23875C26.1688 6.56654 27.5183 8.26919 28.4267 10.2109ZM29.7109 16C29.712 17.3418 29.5154 18.6764 29.1275 19.9609H22.6818C23.1165 17.3382 23.1165 14.6618 22.6818 12.0391H29.1275C29.5154 13.3236 29.712 14.6582 29.7109 16ZM16 29.7109C15.962 29.7111 15.9244 29.7032 15.8897 29.6877C15.8551 29.6722 15.8241 29.6495 15.7989 29.6211C13.8367 27.508 12.3956 24.7948 11.582 21.7891H20.418C19.6045 24.7948 18.1633 27.508 16.2011 29.6211C16.1759 29.6495 16.145 29.6722 16.1103 29.6877C16.0756 29.7032 16.038 29.7111 16 29.7109ZM11.1722 19.9609C10.703 17.3412 10.703 14.6588 11.1722 12.0391H20.8278C21.297 14.6588 21.297 17.3412 20.8278 19.9609H11.1722ZM2.28907 16C2.28804 14.6582 2.48465 13.3236 2.87255 12.0391H9.31821C8.88348 14.6618 8.88348 17.3382 9.31821 19.9609H2.87255C2.48465 18.6764 2.28804 17.3418 2.28907 16ZM16 2.28906C16.038 2.28885 16.0756 2.29676 16.1103 2.31227C16.145 2.32777 16.1759 2.3505 16.2011 2.37895C18.1633 4.49195 19.6045 7.2052 20.418 10.2109H11.582C12.3956 7.2052 13.8367 4.49195 15.7989 2.37895C15.8241 2.3505 15.8551 2.32777 15.8897 2.31227C15.9244 2.29676 15.962 2.28885 16 2.28906ZM13.267 2.56328C11.5755 4.84725 10.3606 7.44801 9.6945 10.2109H3.57333C4.48168 8.26919 5.83116 6.56654 7.51417 5.23875C9.19717 3.91097 11.1671 2.9948 13.267 2.56328ZM3.57333 21.7891H9.6945C10.3606 24.552 11.5755 27.1528 13.267 29.4367C11.1671 29.0052 9.19717 28.089 7.51417 26.7612C5.83116 25.4335 4.48168 23.7308 3.57333 21.7891ZM18.7331 29.4367C20.4245 27.1528 21.6394 24.552 22.3055 21.7891H28.4267C27.5183 23.7308 26.1688 25.4335 24.4858 26.7612C22.8028 28.089 20.8329 29.0052 18.7331 29.4367Z" fill="#6000DA"/>
</svg>
