<svg width="191" height="31" viewBox="0 0 191 31" fill="none" xmlns="http://www.w3.org/2000/svg">
<path d="M181.497 30.6553C176.537 30.6553 172.537 28.9753 172.537 25.9353C172.537 23.9353 173.937 23.0953 175.697 23.0953C180.137 23.0953 178.737 28.7353 181.497 28.7353C182.337 28.7353 183.057 28.2953 183.057 26.8953C183.057 21.6953 172.857 24.5753 172.857 16.9353C172.857 13.2553 176.377 10.6953 181.537 10.6953C186.657 10.6953 190.137 12.7753 190.137 15.5353C190.137 17.0553 188.777 18.2553 187.097 18.2553C182.817 18.2553 184.137 12.6953 181.977 12.6953C181.017 12.6953 180.697 13.6953 180.697 14.6553C180.697 20.1753 190.377 17.5353 190.377 24.6553C190.377 28.0553 187.217 30.6553 181.497 30.6553Z" fill="#6000DA"/>
<path d="M164.574 30.6984C160.414 30.6984 157.694 27.9784 157.694 22.9384V14.0984H156.494C155.934 14.0984 155.494 13.6584 155.494 13.0984V12.0984C155.494 11.4984 155.894 11.0984 156.494 11.0984H157.054C159.654 11.0984 161.814 9.45844 162.414 7.01844C162.574 6.33844 163.054 5.89844 163.614 5.89844H164.694C165.374 5.89844 165.854 6.33844 165.854 7.01844V11.0984H169.614C170.174 11.0984 170.614 11.5384 170.614 12.0984V13.0984C170.614 13.6584 170.174 14.0984 169.614 14.0984H165.854V23.0984C165.854 24.2184 166.574 24.9384 167.494 24.9384C168.974 24.9384 169.534 24.2184 170.014 23.6584C170.654 22.9384 171.614 23.2184 171.614 24.0184C171.614 27.2184 169.254 30.6984 164.574 30.6984Z" fill="#6000DA"/>
<path d="M145.286 30.6553C140.326 30.6553 136.326 28.9753 136.326 25.9353C136.326 23.9353 137.726 23.0953 139.486 23.0953C143.926 23.0953 142.526 28.7353 145.286 28.7353C146.126 28.7353 146.846 28.2953 146.846 26.8953C146.846 21.6953 136.646 24.5753 136.646 16.9353C136.646 13.2553 140.166 10.6953 145.326 10.6953C150.446 10.6953 153.926 12.7753 153.926 15.5353C153.926 17.0553 152.566 18.2553 150.886 18.2553C146.606 18.2553 147.926 12.6953 145.766 12.6953C144.806 12.6953 144.486 13.6953 144.486 14.6553C144.486 20.1753 154.166 17.5353 154.166 24.6553C154.166 28.0553 151.006 30.6553 145.286 30.6553Z" fill="#6000DA"/>
<path d="M124.283 30.2969C123.683 30.2969 123.283 29.9769 123.283 29.4569V29.2969C123.283 28.0569 124.923 27.4569 124.923 25.4969V19.0569C124.923 17.0969 123.283 16.4969 123.283 15.4169V15.2569C123.283 14.7769 123.683 14.5369 124.283 14.2569L131.123 10.8969C132.323 10.2969 133.083 11.0169 133.083 11.8169V25.4969C133.083 27.4569 134.923 28.0569 134.923 29.2969V29.4569C134.923 29.9769 134.523 30.2969 133.923 30.2969H124.283ZM124.003 4.69688C124.003 2.21688 126.043 0.296875 129.083 0.296875C132.123 0.296875 134.163 2.21688 134.163 4.69688C134.163 7.17688 132.123 9.13688 129.083 9.13688C126.043 9.13688 124.003 7.17688 124.003 4.69688Z" fill="#6000DA"/>
<path d="M100.191 30.2984C99.5914 30.2984 99.1914 29.9784 99.1914 29.4584V29.2984C99.1914 28.0584 100.831 27.4584 100.831 25.4984V6.69844C100.831 4.73844 99.1914 4.13844 99.1914 2.89844V2.73844C99.1914 2.21844 99.5914 1.89844 100.191 1.89844H109.991C110.591 1.89844 110.991 2.21844 110.991 2.73844V2.89844C110.991 4.13844 109.151 4.73844 109.151 6.69844V24.2984C109.151 25.7384 109.751 27.1784 111.271 27.1784H114.151C117.791 27.1784 118.471 21.1784 120.511 21.1784H121.111C121.791 21.1784 122.151 21.6184 122.031 22.2584L120.951 28.8984C120.791 29.8584 120.431 30.2984 119.471 30.2984H100.191Z" fill="#6000DA"/>
<path d="M74.2066 30.2994C73.6066 30.2994 73.2066 29.9794 73.2066 29.4594V29.2994C73.2066 28.0594 74.8466 27.4594 74.8466 25.4994V18.6594C74.8466 16.6994 72.8066 16.4994 72.8066 15.2594V15.0994C72.8066 14.5794 73.1666 14.1794 73.8066 13.8594L80.1666 10.8594C81.2866 10.3394 81.6866 10.9794 81.6866 11.8194V14.7394C82.5266 12.1394 84.4066 10.6994 87.3266 10.6994C89.6866 10.6994 91.0866 12.4994 91.0866 14.8994C91.0866 17.1394 90.2866 19.1394 87.6466 19.1394C83.5666 19.1394 85.3666 15.1394 83.4866 15.1394C82.6466 15.1394 82.5266 16.3794 82.5266 17.6194V25.4994C82.5266 27.4594 84.7666 28.0594 84.7666 29.2994V29.4594C84.7666 29.9794 84.3666 30.2994 83.7666 30.2994H74.2066Z" fill="#6000DA"/>
<path d="M57.3876 30.6947C53.4676 30.6947 49.9076 27.9747 49.9076 23.1347V16.5747C49.9076 14.6147 48.2676 14.0147 48.2676 12.9347V12.7747C48.2676 12.2947 48.6676 11.8547 49.2676 11.7747L55.9076 10.8947C57.2276 10.7347 58.0276 11.0147 58.0276 11.8147L57.8676 23.9747C57.8276 26.8947 58.4676 27.7747 59.8676 27.7747C60.9876 27.7747 61.8676 26.4147 61.8676 24.3347V16.5747C61.8676 14.6147 60.2276 14.0147 60.2276 12.9347V12.7747C60.2276 12.2947 60.6276 11.8547 61.2276 11.7747L67.8676 10.8947C69.1876 10.7347 69.8276 11.0147 69.8276 11.8147V25.6147C69.8276 28.9747 71.4276 27.3347 71.4276 29.0947C71.4276 30.2547 69.6676 30.5347 66.8676 30.5347C64.2676 30.5347 63.1476 29.9747 62.8676 28.4547C61.8676 29.8947 60.0676 30.6947 57.3876 30.6947Z" fill="#6000DA"/>
<path d="M36.037 30.6953C30.197 30.6953 24.877 26.6953 24.877 20.6953C24.877 14.6953 30.197 10.6953 36.037 10.6953C41.917 10.6953 47.157 14.6953 47.157 20.6953C47.157 26.6953 41.917 30.6953 36.037 30.6953ZM32.877 17.1353C32.877 19.6953 34.077 28.5353 36.997 28.5353C38.597 28.5353 38.837 26.8553 38.837 24.3353C38.837 22.2153 37.637 12.8553 34.677 12.8553C33.117 12.8553 32.877 14.3753 32.877 17.1353Z" fill="#6000DA"/>
<path d="M2.88 6.69844C1.56 4.57844 0 4.13844 0 2.89844V2.73844C0 2.21844 0.4 1.89844 1 1.89844H13.2C13.8 1.89844 14.2 2.21844 14.2 2.73844V2.89844C14.2 4.13844 11.36 4.85844 12.36 6.69844L17 15.2984L21.6 6.69844C22.64 4.73844 19.8 4.13844 19.8 2.89844V2.73844C19.8 2.21844 20.2 1.89844 20.8 1.89844H27.28C27.88 1.89844 28.28 2.21844 28.28 2.73844V2.89844C28.28 4.13844 26.72 4.41844 25.48 6.69844L19 18.5384V25.4984C19 27.4584 20.84 28.0584 20.84 29.2984V29.4584C20.84 29.9784 20.44 30.2984 19.84 30.2984H10.04C9.44 30.2984 9.04 29.9784 9.04 29.4584V29.2984C9.04 28.0584 10.68 27.4584 10.68 25.4984V19.3384L2.88 6.69844Z" fill="#6000DA"/>
</svg>
