<svg width="13" height="13" viewBox="0 0 13 13" fill="none" xmlns="http://www.w3.org/2000/svg">
<path d="M1.9501 13L10.225 13C10.6812 12.9998 11.1229 12.8398 11.4733 12.5476C11.8236 12.2555 12.0605 11.8497 12.1426 11.401L12.9681 6.85101C13.0196 6.56993 13.0086 6.28097 12.936 6.0046C12.8634 5.72822 12.731 5.47118 12.548 5.25166C12.3651 5.03214 12.1361 4.8555 11.8773 4.73426C11.6186 4.61301 11.3363 4.55011 11.0506 4.55002L8.08641 4.55002L8.45042 3.62052C8.60184 3.21354 8.65226 2.77592 8.59737 2.34517C8.54248 1.91443 8.38392 1.50343 8.13528 1.14742C7.88664 0.791422 7.55535 0.501045 7.16982 0.3012C6.78429 0.101356 6.35604 -0.00198995 5.9218 2.79914e-05C5.79676 0.000289287 5.67444 0.0366071 5.56953 0.104628C5.46461 0.172649 5.38153 0.269486 5.33027 0.383528L3.47768 4.55002L1.9501 4.55002C1.4329 4.55002 0.936886 4.75546 0.571171 5.12116C0.205457 5.48685 6.13459e-07 5.98284 5.68247e-07 6.50001L1.70474e-07 11.05C1.25262e-07 11.5672 0.205457 12.0632 0.571171 12.4289C0.936885 12.7946 1.4329 13 1.9501 13ZM4.55023 5.33652L6.31832 1.35853C6.49923 1.41326 6.66701 1.50445 6.81134 1.62649C6.95567 1.74852 7.07348 1.89881 7.15752 2.0681C7.24156 2.23739 7.29005 2.42209 7.29999 2.61083C7.30994 2.79956 7.28114 2.98834 7.21536 3.16552L6.87084 4.09502C6.79743 4.29149 6.77265 4.50279 6.79861 4.71091C6.82457 4.91903 6.9005 5.11778 7.01992 5.2902C7.13934 5.46261 7.2987 5.60358 7.48441 5.70106C7.67012 5.79854 7.87666 5.84965 8.0864 5.85002L11.0506 5.85002C11.146 5.84986 11.2404 5.87075 11.3269 5.91119C11.4134 5.95163 11.49 6.01064 11.5511 6.08402C11.6137 6.15638 11.6596 6.24167 11.6854 6.3338C11.7113 6.42594 11.7164 6.52264 11.7006 6.61701L10.875 11.167C10.8474 11.3184 10.7668 11.4551 10.6478 11.5527C10.5287 11.6503 10.3789 11.7025 10.225 11.7L4.55023 11.7L4.55023 5.33652ZM1.30007 6.50001C1.30007 6.32762 1.36855 6.16229 1.49046 6.0404C1.61236 5.9185 1.7777 5.85002 1.9501 5.85002L3.25016 5.85002L3.25016 11.7L1.9501 11.7C1.7777 11.7 1.61236 11.6315 1.49045 11.5096C1.36855 11.3877 1.30007 11.2224 1.30007 11.05L1.30007 6.50001Z" fill="#6000DA"/>
</svg>
