<svg width="31" height="30" viewBox="0 0 31 30" fill="none" xmlns="http://www.w3.org/2000/svg">
<path d="M10.9237 8.65385C10.9237 9.11287 10.7413 9.5531 10.4167 9.87768C10.0922 10.2023 9.65194 10.3846 9.19291 10.3846C8.73388 10.3846 8.29365 10.2023 7.96907 9.87768C7.64449 9.5531 7.46214 9.11287 7.46214 8.65385C7.46214 8.19482 7.64449 7.75459 7.96907 7.43001C8.29365 7.10542 8.73388 6.92308 9.19291 6.92308C9.65194 6.92308 10.0922 7.10542 10.4167 7.43001C10.7413 7.75459 10.9237 8.19482 10.9237 8.65385ZM10.9237 15C10.9237 15.459 10.7413 15.8993 10.4167 16.2238C10.0922 16.5484 9.65194 16.7308 9.19291 16.7308C8.73388 16.7308 8.29365 16.5484 7.96907 16.2238C7.64449 15.8993 7.46214 15.459 7.46214 15C7.46214 14.541 7.64449 14.1007 7.96907 13.7762C8.29365 13.4516 8.73388 13.2692 9.19291 13.2692C9.65194 13.2692 10.0922 13.4516 10.4167 13.7762C10.7413 14.1007 10.9237 14.541 10.9237 15ZM9.19291 23.0769C9.65194 23.0769 10.0922 22.8946 10.4167 22.57C10.7413 22.2454 10.9237 21.8052 10.9237 21.3462C10.9237 20.8871 10.7413 20.4469 10.4167 20.1223C10.0922 19.7977 9.65194 19.6154 9.19291 19.6154C8.73388 19.6154 8.29365 19.7977 7.96907 20.1223C7.64449 20.4469 7.46214 20.8871 7.46214 21.3462C7.46214 21.8052 7.64449 22.2454 7.96907 22.57C8.29365 22.8946 8.73388 23.0769 9.19291 23.0769ZM13.2314 8.65385C13.2314 8.34783 13.3529 8.05434 13.5693 7.83795C13.7857 7.62157 14.0792 7.5 14.3852 7.5H22.4621C22.7682 7.5 23.0616 7.62157 23.278 7.83795C23.4944 8.05434 23.616 8.34783 23.616 8.65385C23.616 8.95987 23.4944 9.25335 23.278 9.46974C23.0616 9.68613 22.7682 9.80769 22.4621 9.80769H14.3852C14.0792 9.80769 13.7857 9.68613 13.5693 9.46974C13.3529 9.25335 13.2314 8.95987 13.2314 8.65385ZM14.3852 13.8462C14.0792 13.8462 13.7857 13.9677 13.5693 14.1841C13.3529 14.4005 13.2314 14.694 13.2314 15C13.2314 15.306 13.3529 15.5995 13.5693 15.8159C13.7857 16.0323 14.0792 16.1538 14.3852 16.1538H22.4621C22.7682 16.1538 23.0616 16.0323 23.278 15.8159C23.4944 15.5995 23.616 15.306 23.616 15C23.616 14.694 23.4944 14.4005 23.278 14.1841C23.0616 13.9677 22.7682 13.8462 22.4621 13.8462H14.3852ZM13.2314 21.3462C13.2314 21.0401 13.3529 20.7466 13.5693 20.5303C13.7857 20.3139 14.0792 20.1923 14.3852 20.1923H22.4621C22.7682 20.1923 23.0616 20.3139 23.278 20.5303C23.4944 20.7466 23.616 21.0401 23.616 21.3462C23.616 21.6522 23.4944 21.9457 23.278 22.162C23.0616 22.3784 22.7682 22.5 22.4621 22.5H14.3852C14.0792 22.5 13.7857 22.3784 13.5693 22.162C13.3529 21.9457 13.2314 21.6522 13.2314 21.3462ZM5.73137 0C4.35428 0 3.0336 0.547045 2.05985 1.52079C1.08611 2.49454 0.539063 3.81522 0.539062 5.19231V24.8077C0.539063 26.1848 1.08611 27.5055 2.05985 28.4792C3.0336 29.453 4.35428 30 5.73137 30H25.3468C26.7238 30 28.0445 29.453 29.0183 28.4792C29.992 27.5055 30.5391 26.1848 30.5391 24.8077V5.19231C30.5391 3.81522 29.992 2.49454 29.0183 1.52079C28.0445 0.547045 26.7238 0 25.3468 0H5.73137ZM2.84675 5.19231C2.84675 4.42726 3.15067 3.69355 3.69164 3.15258C4.23261 2.61161 4.96632 2.30769 5.73137 2.30769H25.3468C26.1118 2.30769 26.8455 2.61161 27.3865 3.15258C27.9275 3.69355 28.2314 4.42726 28.2314 5.19231V24.8077C28.2314 25.5727 27.9275 26.3065 27.3865 26.8474C26.8455 27.3884 26.1118 27.6923 25.3468 27.6923H5.73137C4.96632 27.6923 4.23261 27.3884 3.69164 26.8474C3.15067 26.3065 2.84675 25.5727 2.84675 24.8077V5.19231Z" fill="#6000DA"/>
</svg>
