<svg width="13" height="13" viewBox="0 0 13 13" fill="none" xmlns="http://www.w3.org/2000/svg">
<path d="M11.0499 0H2.77499C2.31879 0.000152037 1.87708 0.160231 1.52672 0.452384C1.17635 0.744537 0.939509 1.15027 0.857393 1.599L0.0318517 6.14899C-0.0195864 6.43007 -0.00861616 6.71903 0.0639859 6.9954C0.136588 7.27178 0.269048 7.52882 0.451991 7.74834C0.634935 7.96786 0.863891 8.1445 1.12266 8.26574C1.38143 8.38699 1.66368 8.44989 1.94945 8.44998H4.9136L4.54958 9.37948C4.39816 9.78646 4.34774 10.2241 4.40263 10.6548C4.45752 11.0856 4.61608 11.4966 4.86472 11.8526C5.11336 12.2086 5.44465 12.499 5.83018 12.6988C6.21571 12.8986 6.64396 13.002 7.0782 13C7.20324 12.9997 7.32556 12.9634 7.43048 12.8954C7.53539 12.8274 7.61847 12.7305 7.66973 12.6165L9.52233 8.44998H11.0499C11.5671 8.44998 12.0631 8.24454 12.4288 7.87884C12.7945 7.51315 13 7.01716 13 6.49999V1.95C13 1.43282 12.7945 0.936836 12.4288 0.571141C12.0631 0.205445 11.5671 0 11.0499 0ZM8.44977 7.66348L6.68168 11.6415C6.50077 11.5867 6.33299 11.4955 6.18866 11.3735C6.04433 11.2515 5.92652 11.1012 5.84248 10.9319C5.75844 10.7626 5.70995 10.5779 5.70001 10.3892C5.69006 10.2004 5.71886 10.0117 5.78464 9.83448L6.12916 8.90498C6.20257 8.70851 6.22735 8.4972 6.20139 8.28909C6.17543 8.08097 6.0995 7.88222 5.98008 7.7098C5.86066 7.53739 5.7013 7.39642 5.51559 7.29894C5.32988 7.20146 5.12334 7.15035 4.9136 7.14998H1.94945C1.85395 7.15014 1.75959 7.12925 1.67308 7.08881C1.58658 7.04837 1.51004 6.98936 1.44892 6.91598C1.3863 6.84362 1.34043 6.75833 1.31459 6.6662C1.28875 6.57406 1.28356 6.47736 1.29942 6.38299L2.12496 1.833C2.15265 1.68157 2.23318 1.54489 2.35222 1.44729C2.47125 1.34968 2.62107 1.29749 2.77499 1.3H8.44977V7.66348ZM11.6999 6.49999C11.6999 6.67238 11.6314 6.83771 11.5095 6.9596C11.3876 7.0815 11.2223 7.14998 11.0499 7.14998H9.74984V1.3H11.0499C11.2223 1.3 11.3876 1.36848 11.5095 1.49038C11.6314 1.61228 11.6999 1.77761 11.6999 1.95V6.49999Z" fill="#6000DA"/>
</svg>
