<svg width="46" height="54" viewBox="0 0 46 54" fill="none" xmlns="http://www.w3.org/2000/svg">
<path d="M46 26.0791L42.3767 20.294C38.5063 22.9787 32.8681 24.6473 26.9829 25.6692C31.6 17.95 35.7503 11.0275 36.6068 9.63028L31.0674 5.88325C30.3428 7.06682 27.3782 12.0148 23.7604 18.0539L22.2342 0L15.6737 0.611996L17.1121 17.7363C13.7413 12.263 11.1445 8.07719 10.8536 7.60376L5.3362 11.3854C7.93842 15.5828 11.452 21.2698 14.9655 26.9971C6.9118 27.4648 0.499582 27.1184 0.362334 27.1068L0 34.0235C0.345865 34.0466 2.80535 34.1794 6.48359 34.1794C8.69054 34.1794 11.3367 34.1332 14.2299 33.9831C10.3704 40.4379 7.2961 45.5879 6.96121 46.1422L12.539 49.8257C12.6158 49.6987 15.3333 45.1549 18.9182 39.1562L20.1645 54L26.7249 53.388L26.0387 45.23C27.2739 47.3085 28.1797 48.8731 28.586 49.6525L34.3559 46.3154C33.4006 44.4852 30.1287 39.0292 26.3241 32.7707C33.6147 31.6275 40.9163 29.6068 46 26.0791Z" fill="#CEE542"/>
</svg>
