<svg width="32" height="32" viewBox="0 0 32 32" fill="none" xmlns="http://www.w3.org/2000/svg">
<g clip-path="url(#clip0_12721_15298)">
<path d="M16.0384 28.9141C17.4592 28.9141 18.6217 27.7516 18.6217 26.3307H13.4551C13.4551 27.7516 14.6176 28.9141 16.0384 28.9141ZM23.7884 21.1641V14.7057C23.7884 10.7403 21.683 7.42073 17.9759 6.5424V5.66406C17.9759 4.59198 17.1105 3.72656 16.0384 3.72656C14.9663 3.72656 14.1009 4.59198 14.1009 5.66406V6.5424C10.4067 7.42073 8.28841 10.7274 8.28841 14.7057V21.1641L5.70508 23.7474V25.0391H26.3717V23.7474L23.7884 21.1641ZM21.2051 22.4557H10.8717V14.7057C10.8717 11.5024 12.8222 8.89323 16.0384 8.89323C19.2547 8.89323 21.2051 11.5024 21.2051 14.7057V22.4557Z" fill="#6000DA"/>
</g>
<defs>
<clipPath id="clip0_12721_15298">
<rect width="31" height="31" fill="white" transform="translate(0.539062 0.5)"/>
</clipPath>
</defs>
</svg>
