<svg width="37" height="36" viewBox="0 0 37 36" fill="none" xmlns="http://www.w3.org/2000/svg">
<g clip-path="url(#clip0_12721_15295)">
<path d="M18.5391 8.85C20.2791 8.85 21.6891 10.26 21.6891 12C21.6891 13.74 20.2791 15.15 18.5391 15.15C16.7991 15.15 15.3891 13.74 15.3891 12C15.3891 10.26 16.7991 8.85 18.5391 8.85ZM18.5391 22.35C22.9941 22.35 27.6891 24.54 27.6891 25.5V27.15H9.38906V25.5C9.38906 24.54 14.0841 22.35 18.5391 22.35ZM18.5391 6C15.2241 6 12.5391 8.685 12.5391 12C12.5391 15.315 15.2241 18 18.5391 18C21.8541 18 24.5391 15.315 24.5391 12C24.5391 8.685 21.8541 6 18.5391 6ZM18.5391 19.5C14.5341 19.5 6.53906 21.51 6.53906 25.5V30H30.5391V25.5C30.5391 21.51 22.5441 19.5 18.5391 19.5Z" fill="#6000DA"/>
</g>
<defs>
<clipPath id="clip0_12721_15295">
<rect width="36" height="36" fill="white" transform="translate(0.539062)"/>
</clipPath>
</defs>
</svg>
