<svg width="11" height="10" viewBox="0 0 11 10" fill="none" xmlns="http://www.w3.org/2000/svg">
<path d="M11 0.909091V2.95455C11 3.06304 10.9554 3.1671 10.8761 3.24382C10.7967 3.32054 10.6891 3.36364 10.5769 3.36364C10.4647 3.36364 10.3571 3.32054 10.2778 3.24382C10.1984 3.1671 10.1538 3.06304 10.1538 2.95455V1.31818H8.46154C8.34933 1.31818 8.24172 1.27508 8.16238 1.19836C8.08304 1.12164 8.03846 1.01759 8.03846 0.909091C8.03846 0.800593 8.08304 0.696539 8.16238 0.61982C8.24172 0.543101 8.34933 0.5 8.46154 0.5H10.5769C10.6891 0.5 10.7967 0.543101 10.8761 0.61982C10.9554 0.696539 11 0.800593 11 0.909091ZM2.53846 8.68182H0.846154V7.04545C0.846154 6.93696 0.80158 6.8329 0.722237 6.75618C0.642895 6.67946 0.535284 6.63636 0.423077 6.63636C0.31087 6.63636 0.203259 6.67946 0.123916 6.75618C0.044574 6.8329 0 6.93696 0 7.04545V9.09091C0 9.19941 0.044574 9.30346 0.123916 9.38018C0.203259 9.4569 0.31087 9.5 0.423077 9.5H2.53846C2.65067 9.5 2.75828 9.4569 2.83762 9.38018C2.91696 9.30346 2.96154 9.19941 2.96154 9.09091C2.96154 8.98241 2.91696 8.87836 2.83762 8.80164C2.75828 8.72492 2.65067 8.68182 2.53846 8.68182ZM10.5769 6.63636C10.4647 6.63636 10.3571 6.67946 10.2778 6.75618C10.1984 6.8329 10.1538 6.93696 10.1538 7.04545V8.68182H8.46154C8.34933 8.68182 8.24172 8.72492 8.16238 8.80164C8.08304 8.87836 8.03846 8.98241 8.03846 9.09091C8.03846 9.19941 8.08304 9.30346 8.16238 9.38018C8.24172 9.4569 8.34933 9.5 8.46154 9.5H10.5769C10.6891 9.5 10.7967 9.4569 10.8761 9.38018C10.9554 9.30346 11 9.19941 11 9.09091V7.04545C11 6.93696 10.9554 6.8329 10.8761 6.75618C10.7967 6.67946 10.6891 6.63636 10.5769 6.63636ZM0.423077 3.36364C0.535284 3.36364 0.642895 3.32054 0.722237 3.24382C0.80158 3.1671 0.846154 3.06304 0.846154 2.95455V1.31818H2.53846C2.65067 1.31818 2.75828 1.27508 2.83762 1.19836C2.91696 1.12164 2.96154 1.01759 2.96154 0.909091C2.96154 0.800593 2.91696 0.696539 2.83762 0.61982C2.75828 0.543101 2.65067 0.5 2.53846 0.5H0.423077C0.31087 0.5 0.203259 0.543101 0.123916 0.61982C0.044574 0.696539 0 0.800593 0 0.909091V2.95455C0 3.06304 0.044574 3.1671 0.123916 3.24382C0.203259 3.32054 0.31087 3.36364 0.423077 3.36364ZM2.96154 2.54545C2.84933 2.54545 2.74172 2.58856 2.66238 2.66527C2.58304 2.74199 2.53846 2.84605 2.53846 2.95455V7.04545C2.53846 7.15395 2.58304 7.25801 2.66238 7.33473C2.74172 7.41145 2.84933 7.45455 2.96154 7.45455C3.07375 7.45455 3.18136 7.41145 3.2607 7.33473C3.34004 7.25801 3.38462 7.15395 3.38462 7.04545V2.95455C3.38462 2.84605 3.34004 2.74199 3.2607 2.66527C3.18136 2.58856 3.07375 2.54545 2.96154 2.54545ZM8.46154 7.04545V2.95455C8.46154 2.84605 8.41696 2.74199 8.33762 2.66527C8.25828 2.58856 8.15067 2.54545 8.03846 2.54545C7.92625 2.54545 7.81864 2.58856 7.7393 2.66527C7.65996 2.74199 7.61538 2.84605 7.61538 2.95455V7.04545C7.61538 7.15395 7.65996 7.25801 7.7393 7.33473C7.81864 7.41145 7.92625 7.45455 8.03846 7.45455C8.15067 7.45455 8.25828 7.41145 8.33762 7.33473C8.41696 7.25801 8.46154 7.15395 8.46154 7.04545ZM6.34615 2.54545C6.23395 2.54545 6.12634 2.58856 6.04699 2.66527C5.96765 2.74199 5.92308 2.84605 5.92308 2.95455V7.04545C5.92308 7.15395 5.96765 7.25801 6.04699 7.33473C6.12634 7.41145 6.23395 7.45455 6.34615 7.45455C6.45836 7.45455 6.56597 7.41145 6.64531 7.33473C6.72466 7.25801 6.76923 7.15395 6.76923 7.04545V2.95455C6.76923 2.84605 6.72466 2.74199 6.64531 2.66527C6.56597 2.58856 6.45836 2.54545 6.34615 2.54545ZM4.65385 2.54545C4.54164 2.54545 4.43403 2.58856 4.35469 2.66527C4.27534 2.74199 4.23077 2.84605 4.23077 2.95455V7.04545C4.23077 7.15395 4.27534 7.25801 4.35469 7.33473C4.43403 7.41145 4.54164 7.45455 4.65385 7.45455C4.76605 7.45455 4.87366 7.41145 4.95301 7.33473C5.03235 7.25801 5.07692 7.15395 5.07692 7.04545V2.95455C5.07692 2.84605 5.03235 2.74199 4.95301 2.66527C4.87366 2.58856 4.76605 2.54545 4.65385 2.54545Z" fill="#6000DA"/>
</svg>
