<svg width="25" height="30" viewBox="0 0 25 30" fill="none" xmlns="http://www.w3.org/2000/svg">
<g clip-path="url(#clip0_1897_164184)">
<path d="M8.54554 20H9.3397L9.62117 19.73C8.63601 18.59 8.04291 17.11 8.04291 15.5C8.04291 11.91 10.9682 9 14.5771 9C18.186 9 21.1113 11.91 21.1113 15.5C21.1113 19.09 18.186 22 14.5771 22C12.9586 22 11.4709 21.41 10.3249 20.43L10.0534 20.71V21.5L5.02712 26.49L3.52928 25L8.54554 20ZM14.5771 20C17.0802 20 19.1008 17.99 19.1008 15.5C19.1008 13.01 17.0802 11 14.5771 11C12.074 11 10.0534 13.01 10.0534 15.5C10.0534 17.99 12.074 20 14.5771 20Z" fill="#6000DA"/>
</g>
<path d="M10.2838 7.345C10.2063 7.39971 10.1177 7.4365 10.0242 7.45271C9.93074 7.46892 9.83485 7.46415 9.74347 7.43873C9.65209 7.41331 9.56751 7.36788 9.49586 7.30574C9.4242 7.24359 9.36726 7.16629 9.32917 7.07943L9.02667 6.16014C8.95301 5.93901 8.82891 5.73806 8.66417 5.57319C8.49944 5.40832 8.29859 5.28405 8.07752 5.21021L7.19831 4.9246C7.07347 4.88089 6.96548 4.79914 6.88952 4.69085C6.83103 4.60862 6.79292 4.51364 6.77836 4.41378C6.7638 4.31391 6.7732 4.21201 6.80578 4.11649C6.83836 4.02098 6.89319 3.93458 6.96575 3.86442C7.0383 3.79427 7.1265 3.74238 7.22306 3.71303L8.09324 3.43018C8.31447 3.35679 8.51557 3.23288 8.68059 3.06827C8.84561 2.90366 8.97002 2.70287 9.04395 2.48182L9.32956 1.603C9.37352 1.47851 9.45506 1.37075 9.56292 1.2946C9.67145 1.21976 9.80017 1.17969 9.93201 1.17969C10.0638 1.17969 10.1926 1.21976 10.3011 1.2946C10.4107 1.37202 10.4932 1.48198 10.5368 1.60889L10.826 2.49871C10.8996 2.71406 11.0214 2.90982 11.1819 3.07113C11.3425 3.23245 11.5377 3.3551 11.7527 3.42978L12.6327 3.715C12.7579 3.75926 12.8662 3.84145 12.9426 3.95014C13.0189 4.05883 13.0594 4.18861 13.0586 4.32142C13.0577 4.45423 13.0155 4.58347 12.9377 4.69115C12.86 4.79884 12.7506 4.87962 12.6248 4.92225L11.7543 5.2051C11.472 5.29974 11.2238 5.47546 11.0408 5.71032C10.9363 5.84507 10.8558 5.99632 10.8028 6.15818L10.5168 7.03582C10.4728 7.16075 10.3911 7.26878 10.283 7.345H10.2838ZM6.45581 9.73357C6.37585 9.79007 6.28029 9.82028 6.18238 9.82C6.08514 9.8203 5.99018 9.79052 5.91052 9.73475C5.8287 9.67664 5.76737 9.59413 5.73531 9.49903L5.58917 9.05C5.55828 8.95675 5.5061 8.87199 5.43674 8.80244C5.36739 8.73288 5.28278 8.68044 5.18963 8.64928L4.73156 8.50078C4.63913 8.46795 4.55908 8.4074 4.50234 8.32739C4.4456 8.24737 4.41493 8.1518 4.41452 8.05371C4.41452 7.95311 4.4467 7.85515 4.50636 7.77414C4.56602 7.69314 4.65002 7.63334 4.7461 7.6035L5.19552 7.45814C5.28881 7.42722 5.3736 7.37497 5.44316 7.30554C5.51272 7.23612 5.56513 7.15144 5.59624 7.05821L5.74552 6.60132C5.77772 6.50807 5.83836 6.42727 5.91889 6.3703C5.99943 6.31333 6.09581 6.28306 6.19446 6.28375C6.29311 6.28444 6.38905 6.31607 6.46878 6.37417C6.54851 6.43226 6.608 6.51391 6.63888 6.6076L6.78581 7.05782C6.81592 7.14983 6.86675 7.2337 6.93439 7.30297C7.00202 7.37224 7.08465 7.42505 7.17592 7.45735L7.63399 7.60585C7.72648 7.63871 7.80658 7.69932 7.86332 7.77941C7.92007 7.8595 7.9507 7.95516 7.95102 8.05332C7.95092 8.15235 7.91963 8.24884 7.8616 8.32909C7.80356 8.40934 7.72172 8.46928 7.6277 8.50039L7.17827 8.64653C7.08473 8.67757 6.99976 8.73009 6.93018 8.79988C6.86059 8.86967 6.80832 8.95479 6.77756 9.04843L6.62867 9.50532C6.59618 9.59763 6.53576 9.67714 6.45581 9.73357Z" fill="#6000DA"/>
<defs>
<clipPath id="clip0_1897_164184">
<rect width="24.1263" height="24" fill="white" transform="matrix(-1 0 0 1 24.127 6)"/>
</clipPath>
</defs>
</svg>
