<svg width="24" height="24" viewBox="0 0 24 24" fill="none" xmlns="http://www.w3.org/2000/svg">
<g clip-path="url(#clip0_12755_4481)">
<path fill-rule="evenodd" clip-rule="evenodd" d="M1.25298 17.1607C1.12296 17.0277 1.03807 16.8579 1.01011 16.675C0.982153 16.4921 1.01252 16.3051 1.09698 16.14L1.93935 14.495C2.91646 12.5867 4.40924 10.9836 6.25192 9.86372C8.0946 8.74388 10.215 8.15113 12.3778 8.15131H12.7917C12.8215 7.50279 12.8603 6.85471 12.9081 6.20725L12.9897 5.10229C13.005 4.89691 13.0738 4.69896 13.1896 4.52782C13.3054 4.35667 13.4642 4.2182 13.6503 4.12596C13.8365 4.03373 14.0437 3.99088 14.2516 4.00162C14.4595 4.01236 14.661 4.07632 14.8365 4.18723C17.3533 5.77805 19.5413 7.82775 21.2838 10.2271L21.831 10.9808C21.9409 11.1321 22 11.3137 22 11.5C22 11.6863 21.9409 11.8679 21.831 12.0192L21.2838 12.7729C19.5413 15.1723 17.3533 17.222 14.8365 18.8128C14.661 18.9237 14.4595 18.9876 14.2516 18.9984C14.0437 19.0091 13.8365 18.9663 13.6503 18.874C13.4642 18.7818 13.3054 18.6433 13.1896 18.4722C13.0738 18.301 13.005 18.1031 12.9897 17.8977L12.9081 16.7939C12.8513 16.0205 12.8069 15.2461 12.775 14.4713C10.1819 14.397 7.6067 14.9178 5.25123 15.9928L2.27774 17.3506C2.10813 17.428 1.91835 17.4514 1.73472 17.4173C1.5511 17.3833 1.38273 17.2936 1.25298 17.1607ZM3.91448 14.6422L4.49646 14.3763C7.37754 13.0615 10.5509 12.4976 13.7145 12.7385C13.9359 12.7554 14.1431 12.8526 14.2964 13.0114C14.4496 13.1702 14.5381 13.3795 14.5449 13.5989C14.5749 14.6208 14.6289 15.6427 14.7033 16.6634L14.7105 16.7524C16.6845 15.3723 18.4121 13.6764 19.8223 11.7344L19.9927 11.4994L19.8223 11.2656C18.4121 9.32365 16.6845 7.62775 14.7105 6.2476L14.7033 6.33661C14.6363 7.24709 14.5871 8.15876 14.5557 9.07111C14.5479 9.30201 14.4497 9.52087 14.2817 9.68144C14.1138 9.84201 13.8893 9.93171 13.6557 9.93158H12.3778C10.6768 9.93145 9.00441 10.3648 7.522 11.1899C6.0396 12.015 4.79715 13.204 3.91448 14.6422Z" fill="#6000DA"/>
</g>
<defs>
<clipPath id="clip0_12755_4481">
<rect width="24" height="24" fill="white"/>
</clipPath>
</defs>
</svg>
