<svg width="193" height="43" viewBox="0 0 193 43" fill="none" xmlns="http://www.w3.org/2000/svg">
<g clip-path="url(#clip0_1878_156426)">
<path d="M0.408982 31.4168L0 25.6992C0.243531 25.681 24.4639 23.7928 33.5197 15.8594L37.1925 20.2046C26.729 29.3713 1.47873 31.3375 0.408982 31.4168Z" fill="#CEE542"/>
<path d="M22.4187 39.5826C20.7699 36.5303 9.19684 18.3286 3.30762 9.13041L8.02465 6C8.7246 7.09309 25.1912 32.8188 27.3525 36.8198L22.4187 39.5826Z" fill="#CEE542"/>
<path d="M17.4008 0.00318062L11.792 0.507812L15.4806 43.003L21.0893 42.4984L17.4008 0.00318062Z" fill="#CEE542"/>
<path d="M9.40908 39.7274L4.6416 36.6772C5.37914 35.4824 22.7237 7.3807 24.459 4.63281L29.1954 7.73293C27.4758 10.4561 9.58964 39.4349 9.40908 39.7274Z" fill="#CEE542"/>
<path d="M54.3631 35.0725C53.8027 35.0725 53.234 35.0359 52.6617 34.9615C45.9387 34.0874 44.1885 29.0503 44.2022 26.5089L49.3638 26.5378L49.3633 26.4841C49.3883 27.1326 49.7471 29.2849 53.3156 29.7489C55.0942 29.9796 56.8314 29.6157 57.7428 28.8201C58.2091 28.4135 58.4247 27.9346 58.4421 27.2674C58.4597 26.5954 58.303 25.9054 57.0481 25.4111C56.4091 25.1594 55.3662 24.9521 54.2618 24.7323C50.6305 24.0097 45.1428 22.9178 44.7434 17.6128C44.5809 15.4563 45.2367 13.5414 46.6396 12.0751C48.3084 10.3307 50.946 9.37275 53.6906 9.51363C62.3038 9.95405 62.1574 16.7348 62.1549 16.8032L56.997 16.6091C56.997 16.6091 56.9929 16.6432 56.9959 16.7048C56.9551 15.8517 55.9974 14.8932 53.4318 14.7621C52.219 14.7008 50.9481 15.1032 50.3371 15.7419C50.0963 15.9936 49.8278 16.388 49.8899 17.2112C49.9815 18.4286 52.3726 19.002 55.2519 19.5749C56.5863 19.8404 57.8464 20.0912 58.9104 20.5103C61.9753 21.7172 63.6852 24.2314 63.6018 27.4078C63.5452 29.5643 62.6807 31.4325 61.1017 32.8104C59.4293 34.2695 56.9913 35.0723 54.3631 35.0725Z" fill="#101036"/>
<path d="M123.79 35.1438C121.868 35.1438 119.41 34.7874 117.537 33.2968C116.408 32.3987 115.037 30.719 114.92 27.8151C114.661 21.4504 114.907 4.4848 114.917 3.76562L120.079 3.84445C120.076 4.01916 119.824 21.3809 120.077 27.5982C120.116 28.5602 120.438 28.9359 120.714 29.1559C121.914 30.1106 124.689 29.9352 125.771 29.7085L126.812 34.8557C126.547 34.9112 125.343 35.1438 123.79 35.1438Z" fill="#101036"/>
<path d="M126.178 9.52156L110.054 11.4141L110.645 16.6345L126.769 14.742L126.178 9.52156Z" fill="#101036"/>
<path d="M77.2587 34.9785C71.0022 34.9785 65.9121 29.2427 65.9121 22.1923C65.9121 15.1418 71.0022 9.40625 77.2587 9.40625C83.5152 9.40625 88.6054 15.142 88.6054 22.1923C88.6054 29.2425 83.5153 34.9785 77.2587 34.9785ZM77.2587 14.6613C73.8483 14.6613 71.0736 18.0397 71.0736 22.1923C71.0736 26.3449 73.8483 29.7235 77.2587 29.7235C80.6691 29.7235 83.4439 26.3451 83.4439 22.1923C83.4439 18.0395 80.6693 14.6613 77.2587 14.6613Z" fill="#101036"/>
<path d="M179.324 35.5992C178.266 35.5992 177.193 35.3776 176.13 34.9339C173.143 33.6869 171.075 30.5089 171.101 27.2058C171.128 23.796 172.79 21.244 175.662 20.2046C178.418 19.2076 181.892 19.7696 184.821 21.1292C185.033 18.8068 184.71 17.1 183.853 16.0373C181.233 12.7874 174.916 16.5036 174.853 16.5416L172.2 12.034C175.96 9.74028 183.485 7.29985 187.842 12.7028C190.925 16.5257 190.05 22.0602 189.512 24.6061C191.599 27.1923 193 31.3913 193 35.0685H187.838C187.838 33.693 187.537 32.1557 187.039 30.7767C186.001 32.3631 184.647 33.7876 182.966 34.6748C181.8 35.2906 180.572 35.5992 179.324 35.5992ZM178.749 24.9502C178.242 24.9502 177.78 25.0155 177.391 25.1559C177.001 25.2973 176.276 25.56 176.262 27.2479C176.253 28.4193 177.038 29.6333 178.088 30.0718C178.996 30.4506 179.792 30.4315 180.591 30.0095C181.806 29.3685 182.859 27.9143 183.567 26.3577C182.079 25.5037 180.226 24.9502 178.749 24.9502Z" fill="#101036"/>
<path d="M97.7146 35.1393C96.2455 35.1393 94.8507 34.3581 93.8084 32.9259C91.7704 30.1243 91.6045 26.2269 91.687 24.1532C91.7739 21.9668 92.1989 18.3747 93.8712 15.0873C92.5121 13.8512 91.3716 13.1745 91.3447 13.1589L93.8874 8.58594C94.0256 8.66524 95.3978 9.46768 97.0694 10.9487C100.31 8.42986 104.719 9.3396 107.879 11.5365L104.968 15.8762C104.67 15.6686 102.308 14.0906 100.597 14.8909C101.986 16.8986 103.138 19.3673 103.493 22.2698C103.883 25.4508 103.706 28.1425 102.953 30.499C102.329 32.453 100.807 34.6835 98.4056 35.0819C98.1742 35.1204 97.9435 35.1393 97.7146 35.1393ZM97.5233 19.9334C97.1409 21.2787 96.9075 22.7765 96.8444 24.3657C96.7613 26.4536 97.1102 28.3725 97.7641 29.5017C97.8654 29.3312 97.9666 29.1189 98.045 28.8733C98.5587 27.2661 98.6655 25.3191 98.3717 22.9202C98.2404 21.8483 97.9357 20.8504 97.5233 19.9334Z" fill="#101036"/>
<path d="M137.793 35.5993C136.735 35.5993 135.662 35.3777 134.599 34.934C131.612 33.687 129.544 30.509 129.57 27.2059C129.596 23.796 131.259 21.2441 134.131 20.2047C136.886 19.2072 140.361 19.7698 143.29 21.1293C143.502 18.8067 143.178 17.0999 142.322 16.0374C139.725 12.8171 133.38 16.5072 133.316 16.5452L130.669 12.034C134.429 9.74032 141.954 7.29989 146.311 12.7026C149.394 16.5258 148.519 22.061 147.981 24.6066C150.068 27.1928 151.469 31.3916 151.469 35.0686H146.307C146.307 33.693 146.006 32.1558 145.507 30.7767C144.47 32.3634 143.116 33.7879 141.435 34.6751C140.269 35.2907 139.041 35.5993 137.793 35.5993ZM137.218 24.9503C136.711 24.9503 136.249 25.0156 135.86 25.156C135.47 25.2972 134.744 25.5601 134.731 27.248C134.722 28.4194 135.507 29.6334 136.557 30.0719C137.466 30.4509 138.261 30.4315 139.06 30.0098C140.275 29.3686 141.327 27.9144 142.036 26.358C140.548 25.5038 138.695 24.9503 137.218 24.9503Z" fill="#101036"/>
<path d="M159.799 35.1393C158.33 35.1395 156.935 34.3578 155.893 32.9256C153.855 30.1247 153.689 26.2273 153.772 24.1534C153.858 21.9684 154.283 18.3789 155.953 15.0931C154.598 13.858 153.463 13.1785 153.437 13.1631L155.972 8.58594C156.11 8.66524 157.482 9.46768 159.154 10.9487C162.395 8.43058 166.805 9.3408 169.964 11.5365L167.053 15.8762C166.755 15.6688 164.389 14.0906 162.682 14.8909C164.071 16.8986 165.223 19.367 165.578 22.2698C165.967 25.4513 165.791 28.1429 165.038 30.4987C164.414 32.4535 162.89 34.6838 160.49 35.0821C160.258 35.1204 160.028 35.1393 159.799 35.1393ZM159.606 19.9385C159.224 21.2821 158.992 22.7788 158.929 24.3657C158.846 26.4534 159.195 28.3725 159.849 29.5015C159.95 29.331 160.051 29.1187 160.129 28.8731C160.643 27.2666 160.75 25.319 160.456 22.9197C160.326 21.8516 160.02 20.8548 159.606 19.9385Z" fill="#101036"/>
</g>
<defs>
<clipPath id="clip0_1878_156426">
<rect width="193" height="43" fill="white"/>
</clipPath>
</defs>
</svg>
