<svg width="28" height="28" viewBox="0 0 28 28" fill="none" xmlns="http://www.w3.org/2000/svg">
<rect width="28" height="28" rx="4" fill="#CEE542"/>
<path d="M9.63121 6.67437L10.364 4.41931C10.4067 4.29917 10.485 4.19488 10.5885 4.12039C10.6969 4.04705 10.8247 4.00781 10.9557 4.00781C11.0866 4.00781 11.2145 4.04707 11.3229 4.12045C11.4234 4.1927 11.5 4.29326 11.5429 4.40922L12.2651 6.6314L12.2651 6.63142L12.2678 6.63953C12.5053 7.3495 12.9048 7.99439 13.4349 8.52309C13.9649 9.05179 14.6108 9.44977 15.3213 9.68547L15.3213 9.68549L15.327 9.68735L17.542 10.4073L17.5512 10.4103L17.5604 10.4131C17.6544 10.4417 17.7403 10.4923 17.811 10.5606C17.8817 10.6289 17.9351 10.7131 17.9669 10.8062C17.9986 10.8992 18.0078 10.9985 17.9936 11.0958C17.9794 11.1931 17.9423 11.2856 17.8853 11.3657L17.8853 11.3657L17.8815 11.3711C17.8099 11.4732 17.7088 11.5508 17.5918 11.5936L15.3672 12.3163L15.3672 12.3162L15.3594 12.3188C14.6495 12.5559 14.0045 12.955 13.4755 13.4845C12.9465 14.0139 12.5479 14.6592 12.3114 15.3693L12.3103 15.3728L11.5587 17.6568C11.522 17.7287 11.4718 17.7929 11.4107 17.8459C11.3403 17.9069 11.2573 17.9515 11.1675 17.9765C11.0778 18.0015 10.9837 18.0061 10.8919 17.9902C10.8128 17.9765 10.7371 17.9477 10.669 17.9056L10.6386 17.8842C10.5358 17.8117 10.4572 17.7094 10.4134 17.5906L9.68995 15.3705L9.68944 15.3689C9.51849 14.8472 9.25909 14.3604 8.92338 13.9275L8.92197 13.9257C8.33537 13.1729 7.53992 12.6096 6.63502 12.3062L6.63503 12.3061L6.62617 12.3033L4.41755 11.5857C4.29621 11.5435 4.19074 11.465 4.11551 11.3608C4.03932 11.2552 3.99793 11.1286 3.99708 10.9984C3.99624 10.8683 4.03598 10.7411 4.11078 10.6346C4.18365 10.5308 4.28625 10.4517 4.40495 10.4076L6.62948 9.68661L6.63941 9.68339L6.64928 9.67996C7.33995 9.44005 7.96695 9.04607 8.48275 8.52786C8.99855 8.00966 9.38961 7.38084 9.62631 6.68905L9.62881 6.68173L9.63121 6.67437ZM20.3813 23.9647L20.3808 23.9643C20.3474 23.9408 20.3235 23.9096 20.3098 23.8746L19.9359 22.7275L19.9352 22.7252C19.8081 22.3385 19.5922 21.9869 19.3048 21.6986C19.0174 21.4103 18.6664 21.1934 18.2801 21.0652L18.2744 21.0633L17.1353 20.693C17.1348 20.6928 17.1344 20.6926 17.1339 20.6925C17.0946 20.6792 17.0604 20.6539 17.0361 20.6203C17.0119 20.5868 16.9987 20.5467 16.9982 20.5055C16.9988 20.4624 17.0124 20.4204 17.0374 20.3852C17.0611 20.3517 17.0941 20.3258 17.1322 20.3105L18.2795 19.9386L18.2922 19.9345L18.3048 19.93C18.6814 19.7967 19.0224 19.5788 19.3015 19.293C19.5806 19.0071 19.7903 18.661 19.9146 18.2814L19.9148 18.2806L20.2879 17.1373C20.288 17.137 20.2881 17.1368 20.2882 17.1365C20.3014 17.0971 20.3265 17.0628 20.3601 17.0383C20.3939 17.0137 20.4346 17.0002 20.4764 16.9999C20.5183 16.9997 20.5592 17.0125 20.5934 17.0367C20.6262 17.0599 20.6513 17.0925 20.6653 17.1301L21.0416 18.2819L21.0416 18.2819L21.0436 18.2878C21.172 18.6726 21.3883 19.0222 21.6754 19.3087C21.9625 19.5952 22.3125 19.8109 22.6975 19.9385L22.6975 19.9386L22.7044 19.9408L23.8484 20.3108L23.8484 20.3109L23.8595 20.3143C23.9002 20.327 23.9359 20.3523 23.9612 20.3867C23.9861 20.4205 23.9997 20.4613 24.0001 20.5033C23.9995 20.5464 23.9859 20.5883 23.9609 20.6235C23.9371 20.657 23.9042 20.6829 23.8661 20.6981L22.7188 21.0701L22.7188 21.07L22.7099 21.073C22.3255 21.2016 21.9762 21.418 21.69 21.7051C21.4037 21.9922 21.1883 22.3421 21.0609 22.7269L21.0593 22.7318L20.6896 23.8677C20.6755 23.9075 20.6498 23.9421 20.6159 23.967C20.5827 23.9895 20.5434 24.0015 20.5033 24.0013L20.4973 24.0013C20.4557 24.0015 20.4152 23.9886 20.3813 23.9647Z" fill="#6000DA" stroke="#6000DA" stroke-width="2"/>
</svg>
