<svg width="22" height="22" viewBox="0 0 22 22" fill="none" xmlns="http://www.w3.org/2000/svg">
<path d="M6.63023 3.67437L7.363 1.41931C7.4057 1.29917 7.48402 1.19488 7.58753 1.12039C7.69588 1.04705 7.82375 1.00781 7.95468 1.00781C8.08564 1.00781 8.21356 1.04707 8.32193 1.12045C8.42238 1.1927 8.49898 1.29326 8.54196 1.40922L9.26414 3.6314L9.26411 3.63142L9.26682 3.63953C9.50429 4.3495 9.90387 4.99439 10.4339 5.52309C10.9639 6.05179 11.6098 6.44977 12.3203 6.68547L12.3203 6.68549L12.326 6.68735L14.541 7.40735L14.5502 7.41032L14.5594 7.41311C14.6534 7.4417 14.7394 7.49225 14.81 7.56059C14.8807 7.62894 14.9341 7.71311 14.9659 7.80616C14.9976 7.89921 15.0068 7.99848 14.9926 8.09577C14.9784 8.19306 14.9413 8.28558 14.8843 8.36569L14.8843 8.36568L14.8805 8.37108C14.8089 8.47316 14.7078 8.55078 14.5908 8.5936L12.3662 9.31625L12.3662 9.31622L12.3584 9.31883C11.6485 9.55594 11.0035 9.95501 10.4745 10.4845C9.94548 11.0139 9.54694 11.6592 9.31042 12.3693L9.30929 12.3728L8.55771 14.6568C8.52105 14.7287 8.47083 14.7929 8.40971 14.8459C8.33935 14.9069 8.2563 14.9515 8.16657 14.9765C8.07684 15.0015 7.98269 15.0061 7.89092 14.9902C7.81178 14.9765 7.73612 14.9477 7.66799 14.9056L7.63763 14.8842C7.53484 14.8117 7.45622 14.7094 7.41246 14.5906L6.68897 12.3705L6.68847 12.3689C6.51751 11.8472 6.25811 11.3604 5.9224 10.9275L5.921 10.9257C5.33439 10.1729 4.53894 9.60956 3.63404 9.30619L3.63405 9.30615L3.62519 9.30327L1.41657 8.58567C1.29523 8.54349 1.18977 8.46499 1.11453 8.36077C1.03835 8.25524 0.996954 8.12859 0.996107 7.99844C0.99526 7.86829 1.035 7.74111 1.1098 7.6346C1.18267 7.53084 1.28528 7.45172 1.40397 7.4076L3.6285 6.68661L3.63844 6.68339L3.64831 6.67996C4.33898 6.44005 4.96597 6.04607 5.48177 5.52786C5.99757 5.00966 6.38864 4.38084 6.62533 3.68905L6.62784 3.68173L6.63023 3.67437ZM17.3803 20.9647L17.3798 20.9643C17.3464 20.9408 17.3225 20.9096 17.3088 20.8746L16.935 19.7275L16.9342 19.7252C16.8072 19.3385 16.5913 18.9869 16.3038 18.6986C16.0164 18.4103 15.6655 18.1934 15.2791 18.0652L15.2734 18.0633L14.1343 17.693C14.1339 17.6928 14.1334 17.6926 14.1329 17.6925C14.0936 17.6792 14.0594 17.6539 14.0351 17.6203C14.0109 17.5868 13.9977 17.5467 13.9972 17.5055C13.9978 17.4624 14.0114 17.4204 14.0364 17.3852C14.0602 17.3517 14.0931 17.3258 14.1312 17.3105L15.2786 16.9386L15.2912 16.9345L15.3038 16.93C15.6804 16.7967 16.0214 16.5788 16.3005 16.293C16.5796 16.0071 16.7893 15.661 16.9136 15.2814L16.9138 15.2806L17.2869 14.1373C17.287 14.137 17.2871 14.1368 17.2872 14.1365C17.3004 14.0971 17.3255 14.0628 17.3591 14.0383C17.3929 14.0137 17.4336 14.0002 17.4755 13.9999C17.5173 13.9997 17.5582 14.0125 17.5924 14.0367C17.6252 14.0599 17.6503 14.0925 17.6643 14.1301L18.0406 15.2819L18.0406 15.2819L18.0426 15.2878C18.171 15.6726 18.3873 16.0222 18.6744 16.3087C18.9615 16.5952 19.3115 16.8109 19.6965 16.9385L19.6965 16.9386L19.7034 16.9408L20.8475 17.3108L20.8474 17.3109L20.8585 17.3143C20.8993 17.327 20.9349 17.3523 20.9602 17.3867C20.9851 17.4205 20.9988 17.4613 20.9992 17.5033C20.9986 17.5464 20.9849 17.5883 20.9599 17.6235C20.9362 17.657 20.9032 17.6829 20.8652 17.6981L19.7178 18.0701L19.7178 18.07L19.709 18.073C19.3245 18.2016 18.9753 18.418 18.689 18.7051C18.4028 18.9922 18.1874 19.3421 18.0599 19.7269L18.0583 19.7318L17.6886 20.8677C17.6746 20.9075 17.6489 20.9421 17.6149 20.967C17.5817 20.9895 17.5424 21.0015 17.5023 21.0013L17.4963 21.0013C17.4548 21.0015 17.4142 20.9886 17.3803 20.9647Z" stroke="#6000DA" stroke-width="2"/>
</svg>
