<svg width="11" height="10" viewBox="0 0 11 10" fill="none" xmlns="http://www.w3.org/2000/svg">
<path d="M1.22222 10C0.886111 10 0.598481 9.8913 0.359333 9.67389C0.120185 9.45648 0.000407407 9.19481 0 8.88889V1.11111C0 0.805555 0.119778 0.544074 0.359333 0.326667C0.598889 0.109259 0.886518 0.00037037 1.22222 0H9.77778C10.1139 0 10.4017 0.108889 10.6413 0.326667C10.8808 0.544444 11.0004 0.805926 11 1.11111V8.88889C11 9.19444 10.8804 9.45611 10.6413 9.67389C10.4021 9.89167 10.1143 10.0004 9.77778 10H1.22222ZM1.22222 8.88889H9.77778V1.11111H1.22222V8.88889ZM1.83333 7.77778H9.16667L6.875 5L5.04167 7.22222L3.66667 5.55556L1.83333 7.77778Z" fill="#6000DA"/>
</svg>
